# Blender 5.1.0
# www.blender.org
o ArmLeft
v 0.100000 0.100000 1.000000
v 0.125000 0.125000 -0.750000
v 0.100000 0.100000 -0.750000
v 0.125000 0.125000 -1.000000
v 0.100000 -0.100000 1.000000
v 0.125000 -0.125000 -0.750000
v 0.100000 -0.100000 -0.750000
v 0.125000 -0.125000 -1.000000
v -0.100000 0.100000 1.000000
v -0.125000 0.125000 -0.750000
v -0.100000 0.100000 -0.750000
v -0.125000 0.125000 -1.000000
v -0.100000 -0.100000 1.000000
v -0.125000 -0.125000 -0.750000
v -0.100000 -0.100000 -0.750000
v -0.125000 -0.125000 -1.000000
vn -0.0000 -0.0000 1.0000
vn -0.0000 -1.0000 -0.0000
vn -1.0000 -0.0000 -0.0000
vn 1.0000 -0.0000 -0.0000
vn -0.0000 1.0000 -0.0000
vn -0.0000 -0.0000 -1.0000
vt 0.625000 0.500000
vt 0.875000 0.500000
vt 0.875000 0.750000
vt 0.625000 0.750000
vt 0.375000 0.750000
vt 0.625000 1.000000
vt 0.375000 1.000000
vt 0.375000 0.000000
vt 0.625000 0.000000
vt 0.625000 0.250000
vt 0.375000 0.250000
vt 0.375000 0.500000
vt 0.650000 0.525000
vt 0.650000 0.725000
vt 0.125000 0.500000
vt 0.125000 0.750000
s 0
f 1/1/1 9/2/1 13/3/1 5/4/1
f 7/5/2 5/4/2 13/6/2 15/7/2
f 15/8/3 13/9/3 9/10/3 11/11/3
f 3/12/4 1/1/4 5/4/4 7/5/4
f 11/11/5 9/10/5 1/1/5 3/12/5
f 6/4/1 2/1/1 3/13/1 7/14/1
f 8/5/2 6/4/2 14/6/2 16/7/2
f 16/8/3 14/9/3 10/10/3 12/11/3
f 12/15/6 4/12/6 8/5/6 16/16/6
f 4/12/4 2/1/4 6/4/4 8/5/4
f 12/11/5 10/10/5 2/1/5 4/12/5
f 15/7/1 14/6/1 6/4/1 7/14/1
f 15/7/1 11/11/1 10/10/1 14/6/1
f 11/11/1 3/13/1 2/1/1 10/10/1
